# xmcd
#
# Track frame offsets:
# 150
# 14438
# 31609
# 44190
# 61540
# 78240
# 88948
# 106464
# 117315
# 128676
#
# Disc length: 1900 seconds
#
#
# Revision: 0
# Processed by: cddbd v1.5.2PL0 Copyright (c) Steve Scherf et al.
# Submitted via: FreeRIP 2.951 
#
DISCID=79076a0a
DTITLE=Peter Brandy - Kimberley Backroads
DYEAR=1997
DGENRE=Country
TTITLE0=You're The One
TTITLE1=Derby Trip
TTITLE2=Kimberley Backroads
TTITLE3=You're So True
TTITLE4=Seek Ye First
TTITLE5=Answer The Call
TTITLE6=Love Goes On
TTITLE7=Somebody Praying
TTITLE8=Take My Load
TTITLE9=All I Want To Do
EXTD=Christian artist from the Australian Kimberleys
EXTT0=
EXTT1=
EXTT2=
EXTT3=
EXTT4=
EXTT5=
EXTT6=
EXTT7=
EXTT8=
EXTT9=
PLAYORDER=
